<?xml version="1.0" encoding="utf-8"?>
<!-- Generator: Adobe Illustrator 24.1.1, SVG Export Plug-In . SVG Version: 6.00 Build 0)  -->
<svg version="1.1" id="Layer_1" xmlns="http://www.w3.org/2000/svg" xmlns:xlink="http://www.w3.org/1999/xlink" x="0px" y="0px"
	 viewBox="0 0 5554.1 2228.3" style="enable-background:new 0 0 5554.1 2228.3;" xml:space="preserve">
<style type="text/css">
	.st0{display:none;}
	.st1{fill:#3EAD6B;}
	.st2{fill:url(#SVGID_1_);}
	.st3{fill:#F0ECDA;stroke:#010202;stroke-width:4.3097;stroke-miterlimit:10;}
	.st4{fill:#BE1622;}
	.st5{fill:#67140F;}
	.st6{fill:#E5504C;}
	.st7{fill:#E94E1B;}
	.st8{fill:#E63127;}
	.st9{fill:#EE7627;}
</style>
<g id="Layer_1_1_" class="st0">
</g>
<g id="Layer_8">
	<rect class="st1" width="852.9" height="2228.3"/>
	
		<linearGradient id="SVGID_1_" gradientUnits="userSpaceOnUse" x1="-40.1048" y1="2440.3196" x2="5381.335" y2="2556.2566" gradientTransform="matrix(1 0 0 -1 0 3614.7217)">
		<stop  offset="0" style="stop-color:#3EAD6B"/>
		<stop  offset="0.8412" style="stop-color:#F0ECDA"/>
	</linearGradient>
	<rect class="st2" width="5554.1" height="2228.3"/>
</g>
<g id="Layer_3">
	<path class="st3" d="M0,2102.9c0,0,78-84.9,174.8-100.8c96.8-15.9,211.4-25.6,211.4-25.6s239.2-81,201.7-211.4
		c-37.5-130.4-43.5-209.5-43.5-209.5s-150.2,92.9-162,0c-5.6-43.1-44.2-78.9-73.5-129.5c-34-58.4-59.7-130.8-72.6-165.1
		c-11.9-30.8,9.5-91.6,9.5-91.6s13.8-4.3,43.3,33.6c29.5,37.9,104.7,89,104.7,89s22,53,26.3,59s72.8,82.3,84.5,77.1
		c11.9-5.2,87.5,26.1,87.5,26.1l111.4,13.6l40.7-4.7l55.2,56.5l164.6,90.5c0,0-3,149.8,78.7,198.7c81.7,48.9,162,69.2,162,69.2
		s220.4,13.8,244.1,188.8c22,161.8,22,161.8,22,161.8H0V2102.9z"/>
</g>
<g id="Layer_2_1_">
	<path class="st4" d="M213.1,666.2c0,0,29.7-84.7,51.3-76.9s41.6-63.6,87.1-57.8c45.5,5.8,33.6-51.9,84.9-38.6
		c51.3,13.4,49.3-25,77.1-25c108.2,0,94.4-75.9,304.3-5.8c144.4,48.1,460.5,221.3,365.7,504c0,0-103.2,73.9-4.7,83.2
		c58.6,5.4,49.6-9.3,80.2,48.3c0,0-37.9,64.9,37.3,91.8s59.3,78.9,27.6,109.7c0,0,68.5,0,26.3,86.6c0,0,94.2-32.8,27.2,176.9
		c-67,209.7-290.5,100-290.5,100l-23.7-38.6c0,0-120.5,25-170-23.1c-49.3-48.1-183.8-88.6-160.1-142.4c0,0-266.8,61.6-363.7-163.6
		c0,0-225.4-153.9-227.3-294.4c-1.9-140.5,39.4-165.5,39.4-165.5S171.7,666.2,213.1,666.2z"/>
</g>
<g id="Layer_4">
	<path class="st5" d="M461.4,551.4c0,0-17.9,118.5,89,199.5c0,0-49.3-179.9-63.4-199.5C473,531.8,461.4,551.4,461.4,551.4z"/>
	<path class="st5" d="M671,586.9c0,0,71.1,128.4,197.6,175.8c126.5,47.4,195.7,96.8,197.6,148.3c0,0-104.7-65.3-197.6-79.1
		c-92.9-13.8-156.2-138.3-156.2-138.3S668.9,612.6,671,586.9z"/>
	<path class="st5" d="M955.5,586.9c0,0,225.4,241.1,223.2,304.3c-2.2,63.1-31.7,92.9-31.7,92.9s11.9-144.4-65.3-177.8
		C1004.6,772.9,955.5,586.9,955.5,586.9z"/>
	<path class="st5" d="M404,616.7c0,0-55.6,55.4,56.2,134.5S404,616.7,404,616.7z"/>
	<path class="st5" d="M307.3,616.7c0,0-114.6,122.6,13.8,243.1C321.1,859.7,269.8,671.8,307.3,616.7z"/>
	<path class="st5" d="M479.2,1089c0,0,290.5,69.2,363.7,37.5s-43.7,77.1-43.7,77.1S603.8,1249.1,479.2,1089z"/>
	<path class="st5" d="M868.6,1403.2c0,0,97,37.3,144.4-82.3c47.4-119.6,0-8.6,0-8.6S894.3,1413.1,868.6,1403.2z"/>
	<path class="st5" d="M783.5,542.6c0,0,45.5,91.8,158.2,141.1C941.7,683.7,805.3,703.7,783.5,542.6z"/>
	<path class="st5" d="M670.8,470.4c0,0-9.9,118.5,55.4,156.2C726.2,626.4,660.9,474.2,670.8,470.4z"/>
	<path class="st5" d="M327.1,768.6c0,0-23.7,75.4,27.6,104.9S327.1,768.6,327.1,768.6z"/>
	<path class="st5" d="M542.4,634.3c0,0,25.6,106.2,108.6,134.2S542.4,634.3,542.4,634.3z"/>
	<path class="st5" d="M595.8,480.3c0,0-25.6,53.2,45.5,133.4L595.8,480.3z"/>
	<path class="st5" d="M726.2,454.4c0,0,114.6,35.6,124.6,53.4C860.7,525.7,714.3,495.1,726.2,454.4z"/>
	<path class="st5" d="M919.9,964.5c0,0,150.2,8,146.3,45.5C1062.3,1047.4,919.9,964.5,919.9,964.5z"/>
	<path class="st5" d="M518.7,984.1c0,0,106.7,1.9,170,21.8C752,1025.7,568.2,1025.7,518.7,984.1z"/>
	<path class="st5" d="M1178.9,1310.3c0,0,173.9-3.9,170-75.2C1348.9,1235.1,1253.9,1292.4,1178.9,1310.3z"/>
	<path class="st5" d="M1135.4,1089c0,0,102.8-71.1,104.7,17.9C1242.1,1195.7,1145.3,1027.6,1135.4,1089z"/>
	<path class="st5" d="M1178.9,1539.6c0,0,11.9,73-65.3,71.1C1036.5,1608.8,1265.8,1668,1178.9,1539.6z"/>
	<path class="st5" d="M1135.4,1438.8c0,0,209.5,25.2,203.6-117.9C1339,1320.9,1362.7,1502.1,1135.4,1438.8z"/>
	<path class="st5" d="M1067.3,1310.3c0,0,155.6-158.2,196.7-141.1C1263.8,1169.2,1208.4,1124.6,1067.3,1310.3z"/>
	<path class="st5" d="M792.8,513c0,0,83.8,28.4,97.6,73.9c13.8,45.5,0,39.4,0,39.4S847.3,627,792.8,513z"/>
	<path class="st5" d="M356.6,1018.8c0,0,90.7,12.7,103.6,114.4C473.2,1235.1,356.6,1018.8,356.6,1018.8z"/>
	<path class="st5" d="M275.6,964.5c0,0,43.5,98.7,61.2,99.8C354.5,1065.3,323,980.2,275.6,964.5z"/>
	<path class="st5" d="M955.5,1547.6c0,0,51.3-9.9,53.4-55.4C1010.8,1446.7,955.5,1547.6,955.5,1547.6z"/>
</g>
<g id="Layer_5">
	<path class="st6" d="M234.2,668.4c0,0,40.5,211.2,99.8,209.5c0,0,28.2,34.5,56.2,0c28.2-34.5,217.2-71.5,282.7-24.1
		c0,0-158-34-264.2,39.2S226.9,791.4,226.9,791.4s-26.3-45.3-21.3-69.2C210.5,698.3,215.9,675.7,234.2,668.4z"/>
	<path class="st6" d="M205.1,785.6c0,0,122.8,177.8,159.9,163.1s192.6,62.3,209,77.1s327.1-48.9,381.4,0c0,0-153.6-17.9-348.2,13.4
		c0,0-173.9-38.1-217-74.6c0,0-82.3,0.4-130.2-69.2s-58-65.7-58-65.7S193.7,769.2,205.1,785.6z"/>
	<path class="st6" d="M550.4,483.7c0,0,166.6,374.9,248.9,350.2c0,0-133.2-136.4-158-193.7C616.5,583.1,550.4,483.7,550.4,483.7z"/>
	<path class="st6" d="M851.2,845.7c0,0,217,68.1,250.6,155.6c0,0,6,27.2-28.7-9.5C1038.4,955.2,958.5,882.4,851.2,845.7z"/>
	<path class="st6" d="M1294.4,1310.3c0,0-53.4,90.9-168.1,98.3C1126.6,1408.6,1252.2,1354.3,1294.4,1310.3z"/>
	<path class="st6" d="M486.1,1139.2c0,0,209.9,149.1,306.6,84C792.8,1223.3,686.8,1339,486.1,1139.2z"/>
	<path class="st6" d="M673.2,465.4c0,0,57.1,175.8,98.7,161.2c0,0-52.6-52.4-100.8-156.2"/>
	<path class="st6" d="M595.8,475.3c0,0,29.3-55.4,129.7-25.6s147,63.4,147,63.4S635.3,357.7,595.8,475.3z"/>
	<path class="st6" d="M444.5,534.6c0,0-112.7-12.1,16.8,133.8c0,0,62.3,90.1,57.3,100.2c0,0,26.7,20-28.7-72
		S362.2,560.2,444.5,534.6z"/>
	<path class="st6" d="M321.1,626.4c0,0-6.7,53.4,50.9,116.6L321.1,626.4z"/>
	<path class="st6" d="M872.5,504.8c0,0,233.2,184.9,262.9,246.1c0,0-42.5-89.9-131.4-157.1S917.1,521.6,872.5,504.8z"/>
	<path class="st6" d="M884.4,1285.5c0,0,131.4-68.1,182.7-165.9L884.4,1285.5z"/>
	<path class="st6" d="M1002.9,1133.2c0,0,90.1-61.8,94.6-94.2C1102.2,1006.7,1002.9,1133.2,1002.9,1133.2z"/>
	<path class="st6" d="M758.9,1337c0,0,133.4-64.4,141.4-89S760.9,1327.4,758.9,1337z"/>
	<path class="st6" d="M829.6,1433.8c0,0,154.5,20.7,210.7-107.7c56.2-128.4,158.4-168.1,158.4-168.1s-131.7,103-132.7,132.5
		c-1.1,29.5-48.3,119.4-73,136.2C968.4,1443.7,898.6,1504.1,829.6,1433.8z"/>
</g>
<g id="Layer_6">
	<path class="st7" d="M184.2,877.8c0,0-45.3,278.4,187.9,349.5c0,0,103.6,17.9,227.6,0s236.8,93.7,236.8,93.7s38.1,32.3,38.6,57.5
		c0.4,25.2-51.5-163.6-194.2-172.8c-142.4-9.5-244.1,30.6-308.8-19.8c-64.9-50.4-149.3-81-146.3-274.7c0,0-29.5-49.1-26.5-65.3
		S184.2,877.8,184.2,877.8z"/>
	<path class="st7" d="M260.1,1033.6c0,0,200.2,405.1,437.9,251.9s335.9-251.9,335.9-251.9l32.3-23.9c0,0-124.3,212.9-394.1,334.4
		C402.3,1465.7,287.9,1064.7,260.1,1033.6z"/>
	<path class="st7" d="M346.7,1218.3c0,0,254.1,495.2,581.6,92l47.4-53.7c0,0-67.2,64.2-91.4,80.4c-24.1,16.2-142.9,176.3-326.7,78.4
		C373.9,1317.7,346.7,1218.3,346.7,1218.3z"/>
	<path class="st7" d="M439.2,1033.6c0,0,272.4,79.9,423.4,28.2c151.1-51.7-257.7,175-383.4,2.2
		C479.2,1064.2,464.4,1061.4,439.2,1033.6z"/>
	<path class="st7" d="M382.3,715.4c0,0-14.4,142.4,328.2,223.2s224.3,62.7,224.3,62.7S346.3,926.3,382.3,715.4z"/>
	<path class="st7" d="M829.6,646.6c0,0,333.4,209.2,305.8,317.8c0,0-59.3-118.3-126.5-159S829.6,646.6,829.6,646.6z"/>
	<path class="st7" d="M1080,1019.6c-1.1,1.5-9.3-61.2-205.1-75c-195.9-13.8-297.6-75.2-297.6-75.2s158.8,55.4,194.4,49.3
		c35.6-6,221.3,25.6,221.3,25.6S1107.8,985.8,1080,1019.6z"/>
	<path class="st7" d="M390.2,1297.4c0,0,23.7,538.5,343.9,345c0,0-134.5,126.3-262.9-19.6S390.2,1297.4,390.2,1297.4z"/>
	<path class="st7" d="M792.8,1452.1c0,0,33.4,228.2,273.5-43.5s292-220,292-220s-69.6,1.1-159.2,97
		C1109.1,1381.4,824.5,1721.5,792.8,1452.1z"/>
	<path class="st7" d="M1358.2,1202.6c0,0,35.6,65.9-13.4,98.7C1295.9,1334,1444.2,1258,1358.2,1202.6z"/>
	<path class="st7" d="M1270.7,1149.1"/>
	<path class="st8" d="M1126.6,1639.4c0,0,255.4,86,243.5-197.2c0,0-38.6-153.4,15.5,24.8C1385.6,1467,1391,1724.9,1126.6,1639.4z"/>
	<path class="st8" d="M1014.3,1272.8c0,0-222.4,126.5-69.6,360.7s-8.8,257.9-8.8,257.9s103.2-60.8,46.5-154.1
		c-56.9-93.3-136.4-223-86.6-356.4C895.8,1380.8,1002.4,1258.4,1014.3,1272.8z"/>
	<path class="st7" d="M1210.4,1622.8c0,0,158.6-24.8,124.3-162.7v-7.8C1334.7,1452.1,1396.4,1604.5,1210.4,1622.8z"/>
	<path class="st7" d="M783.1,1452.1c0,0-54.1,309.9,272.8,43.1C1055.9,1495.2,729.6,1788.3,783.1,1452.1z"/>
	<path class="st7" d="M805.3,1539.6c0,0,73.7,153,238.8,0C1044,1539.6,901.6,1674.1,805.3,1539.6z"/>
	<path class="st7" d="M955.5,1613.5c0,0,98.5,21.3,146.7-76.1V1503C1102.2,1503,1132.4,1642.6,955.5,1613.5z"/>
	<path class="st7" d="M1097.5,1488.1c0,0,153.9,27.6,179.9,65.7"/>
	<path class="st7" d="M1148.1,1421.1c0,0,151.3-8.2,181.9-110.8C1330,1310.3,1293.6,1386.4,1148.1,1421.1z"/>
	<path class="st7" d="M1119.7,1446.7c0,0,231.2,66.2,240.7-119.6C1360.1,1327.1,1351.7,1485.7,1119.7,1446.7z"/>
</g>
<g id="Layer_7">
	<path class="st9" d="M334,613.7c0,0,168.9,302.8,471.5,284.7C805.3,898.3,600.8,992.9,334,613.7z"/>
	<path class="st9" d="M525.1,524.7c0,0,222.4,402.1,416.5,376.5C941.7,901.1,744.5,953.1,525.1,524.7z"/>
	<path class="st9" d="M661.3,558.7c0,0,9.1,222.4,450.8,398.6C1112.1,957.6,784.2,838.8,661.3,558.7z"/>
	<path class="st9" d="M691.3,422.3c0,0,375.2,37.7,507.7,455.3C1199,877.8,1149.2,576.6,691.3,422.3z"/>
	<path class="st9" d="M201,859.7c0,0-47,396.3,335.9,358.8s347.4,118.7,347.4,118.7s8.4-148.9-342.2-101.9S169.4,895.9,201,859.7z"
		/>
	<path class="st9" d="M208.6,709.1c0,0,106.5,290.3,217.2,160.5c0,0,286.2-33.2,332.9,8.2c0,0-272.2-53.2-325.6-31.9
		C379.9,867.1,356.2,986.9,208.6,709.1z"/>
	<path class="st9" d="M346.7,715.4c0,0-25.2,227.3,424.9,268.7C771.7,984.1,389.4,943.1,346.7,715.4z"/>
	<path class="st9" d="M792.8,1488.1c0,0,198,206.4,319.6-67.2C1112.1,1421.1,1014.3,1670.4,792.8,1488.1z"/>
	<path class="st9" d="M821.6,1467c0,0,123.7,134.9,262.7-139.9C1084.3,1327.1,953.5,1574.7,821.6,1467z"/>
	<path class="st9" d="M1104.2,1297.4c0,0,139.9-134.5,190.3-128.2"/>
	<path class="st9" d="M1102.2,1495.2c0,0,214.6,50.6,228,106.2s-5.4,6-5.4,6S1223.1,1522.8,1102.2,1495.2z"/>
	<path class="st9" d="M1135.4,1430.4c0,0,188.8,26.9,194.6-93.3C1330,1337,1333.4,1415.5,1135.4,1430.4z"/>
</g>
</svg>
