<?xml version="1.0" encoding="utf-8"?>
<!-- Generator: Adobe Illustrator 24.1.1, SVG Export Plug-In . SVG Version: 6.00 Build 0)  -->
<svg version="1.1" xmlns="http://www.w3.org/2000/svg" xmlns:xlink="http://www.w3.org/1999/xlink" x="0px" y="0px"
	 viewBox="0 0 5482.6 2228.3" style="enable-background:new 0 0 5482.6 2228.3;" xml:space="preserve">
<style type="text/css">
	.st0{display:none;}
	.st1{fill:#3EAD6B;}
	.st2{fill:url(#SVGID_1_);}
	.st3{fill:#F0ECDA;stroke:#010202;stroke-width:4.3097;stroke-miterlimit:10;}
	.st4{fill:#BE1622;}
	.st5{fill:#67140F;}
	.st6{fill:#E5504C;}
	.st7{fill:#E94E1B;}
	.st8{fill:#E63127;}
	.st9{fill:#EE7627;}
	.st10{fill:#D8C7D6;stroke:#333333;stroke-width:6.1432;stroke-miterlimit:10;}
	.st11{fill:none;stroke:#333333;stroke-width:3.6451;stroke-miterlimit:10;}
</style>
<g id="Layer_1">
	<g id="Layer_1_1_" class="st0">
	</g>
	<g id="Layer_8">
		<path class="st1" d="M-0.5,0c0.7,3.3,1.1,6.6,1.1,10v2218.3h780.8V0H-0.5z"/>
		
			<linearGradient id="SVGID_1_" gradientUnits="userSpaceOnUse" x1="-145.9578" y1="-1591.8885" x2="5275.4824" y2="-1707.8256" gradientTransform="matrix(1 0 0 1 0 2772.832)">
			<stop  offset="0" style="stop-color:#3EAD6B"/>
			<stop  offset="0.8412" style="stop-color:#F0ECDA"/>
		</linearGradient>
		<path class="st2" d="M-3.1,5.4v2220.5c0,2.7-0.2,5.3-0.6,7.8h5451.9V5.4H-3.1z"/>
	</g>
	<g id="Layer_3">
		<path class="st3" d="M1374.3,2234.6c-1.7-12.5-6.7-49-21.1-155.3c-23.7-175-220.1-201.4-220.1-201.4s-80.3-20.3-162-69.2
			c-81.7-48.9-78.7-198.7-78.7-198.7l-164.6-90.5l-55.2-56.5l-40.7,4.7l-111.4-13.6c0,0-75.6-31.3-87.5-26.1
			c-11.7,5.2-80.2-71.1-84.5-77.1s-26.3-59-26.3-59s-75.2-51.1-104.7-89s-43.3-33.6-43.3-33.6s-21.4,60.8-9.5,91.6
			c12.9,34.3,38.6,106.7,72.6,165.1c29.3,50.6,67.9,86.4,73.5,129.5c11.8,92.9,162,0,162,0s6,79.1,43.5,209.5
			s-201.7,211.4-201.7,211.4s-114.6,9.7-211.4,25.6c-38.4,6.3-73.9,23.5-102.7,41.9v184.6l660.4,6H1374.3z"/>
	</g>
	<g id="Layer_2_1_">
		<path class="st4" d="M141.6,666.2c0,0,29.7-84.7,51.3-76.9s41.6-63.6,87.1-57.8s33.6-51.9,84.9-38.6c51.3,13.4,49.3-25,77.1-25
			c108.2,0,94.4-75.9,304.3-5.8c144.4,48.1,460.5,221.3,365.7,504c0,0-103.2,73.9-4.7,83.2c58.6,5.4,49.6-9.3,80.2,48.3
			c0,0-37.9,64.9,37.3,91.8s59.3,78.9,27.6,109.7c0,0,68.5,0,26.3,86.6c0,0,94.2-32.8,27.2,176.9s-290.5,100-290.5,100l-23.7-38.6
			c0,0-120.5,25-170-23.1c-49.3-48.1-183.8-88.6-160.1-142.4c0,0-266.8,61.6-363.7-163.6c0,0-225.4-153.9-227.3-294.4
			C68.7,860,110,835,110,835S100.2,666.2,141.6,666.2z"/>
	</g>
	<g id="Layer_4">
		<path class="st5" d="M389.9,551.4c0,0-17.9,118.5,89,199.5c0,0-49.3-179.9-63.4-199.5C401.5,531.8,389.9,551.4,389.9,551.4z"/>
		<path class="st5" d="M599.5,586.9c0,0,71.1,128.4,197.6,175.8c126.5,47.4,195.7,96.8,197.6,148.3c0,0-104.7-65.3-197.6-79.1
			S640.9,693.6,640.9,693.6S597.4,612.6,599.5,586.9z"/>
		<path class="st5" d="M884,586.9c0,0,225.4,241.1,223.2,304.3c-2.2,63.1-31.7,92.9-31.7,92.9s11.9-144.4-65.3-177.8
			C933.1,772.9,884,586.9,884,586.9z"/>
		<path class="st5" d="M332.5,616.7c0,0-55.6,55.4,56.2,134.5S332.5,616.7,332.5,616.7z"/>
		<path class="st5" d="M235.8,616.7c0,0-114.6,122.6,13.8,243.1C249.6,859.7,198.3,671.8,235.8,616.7z"/>
		<path class="st5" d="M407.7,1089c0,0,290.5,69.2,363.7,37.5s-43.7,77.1-43.7,77.1S532.3,1249.1,407.7,1089z"/>
		<path class="st5" d="M797.1,1403.2c0,0,97,37.3,144.4-82.3c47.4-119.6,0-8.6,0-8.6S822.8,1413.1,797.1,1403.2z"/>
		<path class="st5" d="M712,542.6c0,0,45.5,91.8,158.2,141.1C870.2,683.7,733.8,703.7,712,542.6z"/>
		<path class="st5" d="M599.3,470.4c0,0-9.9,118.5,55.4,156.2C654.7,626.4,589.4,474.2,599.3,470.4z"/>
		<path class="st5" d="M255.6,768.6c0,0-23.7,75.4,27.6,104.9S255.6,768.6,255.6,768.6z"/>
		<path class="st5" d="M470.9,634.3c0,0,25.6,106.2,108.6,134.2S470.9,634.3,470.9,634.3z"/>
		<path class="st5" d="M524.3,480.3c0,0-25.6,53.2,45.5,133.4L524.3,480.3z"/>
		<path class="st5" d="M654.7,454.4c0,0,114.6,35.6,124.6,53.4C789.2,525.7,642.8,495.1,654.7,454.4z"/>
		<path class="st5" d="M848.4,964.5c0,0,150.2,8,146.3,45.5C990.8,1047.4,848.4,964.5,848.4,964.5z"/>
		<path class="st5" d="M447.2,984.1c0,0,106.7,1.9,170,21.8C680.5,1025.7,496.7,1025.7,447.2,984.1z"/>
		<path class="st5" d="M1107.4,1310.3c0,0,173.9-3.9,170-75.2C1277.4,1235.1,1182.4,1292.4,1107.4,1310.3z"/>
		<path class="st5" d="M1063.9,1089c0,0,102.8-71.1,104.7,17.9C1170.6,1195.7,1073.8,1027.6,1063.9,1089z"/>
		<path class="st5" d="M1107.4,1539.6c0,0,11.9,73-65.3,71.1C965,1608.8,1194.3,1668,1107.4,1539.6z"/>
		<path class="st5" d="M1063.9,1438.8c0,0,209.5,25.2,203.6-117.9C1267.5,1320.9,1291.2,1502.1,1063.9,1438.8z"/>
		<path class="st5" d="M995.8,1310.3c0,0,155.6-158.2,196.7-141.1C1192.3,1169.2,1136.9,1124.6,995.8,1310.3z"/>
		<path class="st5" d="M721.3,513c0,0,83.8,28.4,97.6,73.9s0,39.4,0,39.4S775.8,627,721.3,513z"/>
		<path class="st5" d="M285.1,1018.8c0,0,90.7,12.7,103.6,114.4C401.7,1235.1,285.1,1018.8,285.1,1018.8z"/>
		<path class="st5" d="M204.1,964.5c0,0,43.5,98.7,61.2,99.8C283,1065.3,251.5,980.2,204.1,964.5z"/>
		<path class="st5" d="M884,1547.6c0,0,51.3-9.9,53.4-55.4C939.3,1446.7,884,1547.6,884,1547.6z"/>
	</g>
	<g id="Layer_5">
		<path class="st6" d="M162.7,668.4c0,0,40.5,211.2,99.8,209.5c0,0,28.2,34.5,56.2,0c28.2-34.5,217.2-71.5,282.7-24.1
			c0,0-158-34-264.2,39.2S155.4,791.4,155.4,791.4s-26.3-45.3-21.3-69.2C139,698.3,144.4,675.7,162.7,668.4z"/>
		<path class="st6" d="M133.6,785.6c0,0,122.8,177.8,159.9,163.1s192.6,62.3,209,77.1c16.4,14.8,327.1-48.9,381.4,0
			c0,0-153.6-17.9-348.2,13.4c0,0-173.9-38.1-217-74.6c0,0-82.3,0.4-130.2-69.2s-58-65.7-58-65.7S122.2,769.2,133.6,785.6z"/>
		<path class="st6" d="M478.9,483.7c0,0,166.6,374.9,248.9,350.2c0,0-133.2-136.4-158-193.7C545,583.1,478.9,483.7,478.9,483.7z"/>
		<path class="st6" d="M779.7,845.7c0,0,217,68.1,250.6,155.6c0,0,6,27.2-28.7-9.5C966.9,955.2,887,882.4,779.7,845.7z"/>
		<path class="st6" d="M1222.9,1310.3c0,0-53.4,90.9-168.1,98.3C1055.1,1408.6,1180.7,1354.3,1222.9,1310.3z"/>
		<path class="st6" d="M414.6,1139.2c0,0,209.9,149.1,306.6,84C721.3,1223.3,615.3,1339,414.6,1139.2z"/>
		<path class="st6" d="M601.7,465.4c0,0,57.1,175.8,98.7,161.2c0,0-52.6-52.4-100.8-156.2"/>
		<path class="st6" d="M524.3,475.3c0,0,29.3-55.4,129.7-25.6s147,63.4,147,63.4S563.8,357.7,524.3,475.3z"/>
		<path class="st6" d="M373,534.6c0,0-112.7-12.1,16.8,133.8c0,0,62.3,90.1,57.3,100.2c0,0,26.7,20-28.7-72S290.7,560.2,373,534.6z"
			/>
		<path class="st6" d="M249.6,626.4c0,0-6.7,53.4,50.9,116.6L249.6,626.4z"/>
		<path class="st6" d="M801,504.8c0,0,233.2,184.9,262.9,246.1c0,0-42.5-89.9-131.4-157.1S845.6,521.6,801,504.8z"/>
		<path class="st6" d="M812.9,1285.5c0,0,131.4-68.1,182.7-165.9L812.9,1285.5z"/>
		<path class="st6" d="M931.4,1133.2c0,0,90.1-61.8,94.6-94.2C1030.7,1006.7,931.4,1133.2,931.4,1133.2z"/>
		<path class="st6" d="M687.4,1337c0,0,133.4-64.4,141.4-89S689.4,1327.4,687.4,1337z"/>
		<path class="st6" d="M758.1,1433.8c0,0,154.5,20.7,210.7-107.7s158.4-168.1,158.4-168.1s-131.7,103-132.7,132.5
			c-1.1,29.5-48.3,119.4-73,136.2C896.9,1443.7,827.1,1504.1,758.1,1433.8z"/>
	</g>
	<g id="Layer_6">
		<path class="st7" d="M112.7,877.8c0,0-45.3,278.4,187.9,349.5c0,0,103.6,17.9,227.6,0S765,1321,765,1321s38.1,32.3,38.6,57.5
			c0.4,25.2-51.5-163.6-194.2-172.8c-142.4-9.5-244.1,30.6-308.8-19.8c-64.9-50.4-149.3-81-146.3-274.7c0,0-29.5-49.1-26.5-65.3
			C130.8,829.7,112.7,877.8,112.7,877.8z"/>
		<path class="st7" d="M188.6,1033.6c0,0,200.2,405.1,437.9,251.9s335.9-251.9,335.9-251.9l32.3-23.9c0,0-124.3,212.9-394.1,334.4
			C330.8,1465.7,216.4,1064.7,188.6,1033.6z"/>
		<path class="st7" d="M275.2,1218.3c0,0,254.1,495.2,581.6,92l47.4-53.7c0,0-67.2,64.2-91.4,80.4
			c-24.1,16.2-142.9,176.3-326.7,78.4C302.4,1317.7,275.2,1218.3,275.2,1218.3z"/>
		<path class="st7" d="M367.7,1033.6c0,0,272.4,79.9,423.4,28.2c151.1-51.7-257.7,175-383.4,2.2
			C407.7,1064.2,392.9,1061.4,367.7,1033.6z"/>
		<path class="st7" d="M310.8,715.4c0,0-14.4,142.4,328.2,223.2s224.3,62.7,224.3,62.7S274.8,926.3,310.8,715.4z"/>
		<path class="st7" d="M758.1,646.6c0,0,333.4,209.2,305.8,317.8c0,0-59.3-118.3-126.5-159S758.1,646.6,758.1,646.6z"/>
		<path class="st7" d="M1008.5,1019.6c-1.1,1.5-9.3-61.2-205.1-75c-195.9-13.8-297.6-75.2-297.6-75.2s158.8,55.4,194.4,49.3
			c35.6-6,221.3,25.6,221.3,25.6S1036.3,985.8,1008.5,1019.6z"/>
		<path class="st7" d="M318.7,1297.4c0,0,23.7,538.5,343.9,345c0,0-134.5,126.3-262.9-19.6S318.7,1297.4,318.7,1297.4z"/>
		<path class="st7" d="M721.3,1452.1c0,0,33.4,228.2,273.5-43.5s292-220,292-220s-69.6,1.1-159.2,97
			C1037.6,1381.4,753,1721.5,721.3,1452.1z"/>
		<path class="st7" d="M1286.7,1202.6c0,0,35.6,65.9-13.4,98.7C1224.4,1334,1372.7,1258,1286.7,1202.6z"/>
		<path class="st7" d="M1199.2,1149.1"/>
		<path class="st8" d="M1055.1,1639.4c0,0,255.4,86,243.5-197.2c0,0-38.6-153.4,15.5,24.8C1314.1,1467,1319.5,1724.9,1055.1,1639.4z
			"/>
		<path class="st8" d="M942.8,1272.8c0,0-222.4,126.5-69.6,360.7s-8.8,257.9-8.8,257.9s103.2-60.8,46.5-154.1
			c-56.9-93.3-136.4-223-86.6-356.4C824.3,1380.8,930.9,1258.4,942.8,1272.8z"/>
		<path class="st7" d="M1138.9,1622.8c0,0,158.6-24.8,124.3-162.7v-7.8C1263.2,1452.1,1324.9,1604.5,1138.9,1622.8z"/>
		<path class="st7" d="M711.6,1452.1c0,0-54.1,309.9,272.8,43.1C984.4,1495.2,658.1,1788.3,711.6,1452.1z"/>
		<path class="st7" d="M733.8,1539.6c0,0,73.7,153,238.8,0C972.5,1539.6,830.1,1674.1,733.8,1539.6z"/>
		<path class="st7" d="M884,1613.5c0,0,98.5,21.3,146.7-76.1V1503C1030.7,1503,1060.9,1642.6,884,1613.5z"/>
		<path class="st7" d="M1026,1488.1c0,0,153.9,27.6,179.9,65.7"/>
		<path class="st7" d="M1076.6,1421.1c0,0,151.3-8.2,181.9-110.8C1258.5,1310.3,1222.1,1386.4,1076.6,1421.1z"/>
		<path class="st7" d="M1048.2,1446.7c0,0,231.2,66.2,240.7-119.6C1288.6,1327.1,1280.2,1485.7,1048.2,1446.7z"/>
	</g>
	<g id="Layer_7">
		<path class="st9" d="M262.5,613.7c0,0,168.9,302.8,471.5,284.7C733.8,898.3,529.3,992.9,262.5,613.7z"/>
		<path class="st9" d="M453.6,524.7c0,0,222.4,402.1,416.5,376.5C870.2,901.1,673,953.1,453.6,524.7z"/>
		<path class="st9" d="M589.8,558.7c0,0,9.1,222.4,450.8,398.6C1040.6,957.6,712.7,838.8,589.8,558.7z"/>
		<path class="st9" d="M619.8,422.3c0,0,375.2,37.7,507.7,455.3C1127.5,877.8,1077.7,576.6,619.8,422.3z"/>
		<path class="st9" d="M129.5,859.7c0,0-47,396.3,335.9,358.8s347.4,118.7,347.4,118.7s8.4-148.9-342.2-101.9
			S97.9,895.9,129.5,859.7z"/>
		<path class="st9" d="M137.1,709.1c0,0,106.5,290.3,217.2,160.5c0,0,286.2-33.2,332.9,8.2c0,0-272.2-53.2-325.6-31.9
			C308.4,867.1,284.7,986.9,137.1,709.1z"/>
		<path class="st9" d="M275.2,715.4c0,0-25.2,227.3,424.9,268.7C700.2,984.1,317.9,943.1,275.2,715.4z"/>
		<path class="st9" d="M721.3,1488.1c0,0,198,206.4,319.6-67.2C1040.6,1421.1,942.8,1670.4,721.3,1488.1z"/>
		<path class="st9" d="M750.1,1467c0,0,123.7,134.9,262.7-139.9C1012.8,1327.1,882,1574.7,750.1,1467z"/>
		<path class="st9" d="M1032.7,1297.4c0,0,139.9-134.5,190.3-128.2"/>
		<path class="st9" d="M1030.7,1495.2c0,0,214.6,50.6,228,106.2s-5.4,6-5.4,6S1151.6,1522.8,1030.7,1495.2z"/>
		<path class="st9" d="M1063.9,1430.4c0,0,188.8,26.9,194.6-93.3C1258.5,1337,1261.9,1415.5,1063.9,1430.4z"/>
	</g>
</g>
<g id="Layer_2">
	<path class="st10" d="M16.6,2234.6h1355.7c-1.6-42.6-3.6-142.7-42.4-216c-38.6-72.9-107.4-132.7-156.5-133.1
		c-49.1-0.5-110.1-30.4-110.1-30.4c-26.1,243.6-688.5,96.6-688.5,96.6s-166.9,42.9-249.2,51.7c-47.8,5.1-90.8,22.7-125,41.7v192.4
		C5.8,2235.7,11.2,2234.6,16.6,2234.6z"/>
	<path class="st11" d="M178,2018.7c0,0,23,3.7,21,199.9"/>
	<path class="st11" d="M1182.3,1918.3c12.5,19.3,28.1,165.6,23.6,300.3"/>
</g>
</svg>
